<svg width="84" height="54" viewBox="0 0 84 54" fill="none" xmlns="http://www.w3.org/2000/svg">
<path d="M3.29 9.5H7.84V34H3.29V9.5ZM20.1368 13.35H12.0168V9.5H32.8068V13.35H24.6868V34H20.1368V13.35ZM41.4714 13.315V20.77H53.3014V24.62H41.4714V34H36.9214V9.5H54.8064V13.315H41.4714ZM77.2666 21.26C78.6199 21.7033 79.6933 22.45 80.4866 23.5C81.2799 24.5267 81.6766 25.81 81.6766 27.35C81.6766 29.4733 80.8599 31.1183 79.2266 32.285C77.5933 33.4283 75.2133 34 72.0866 34H59.9066V9.5H71.3866C74.2799 9.5 76.5083 10.0717 78.0716 11.215C79.6349 12.335 80.4166 13.8867 80.4166 15.87C80.4166 17.0833 80.1366 18.1567 79.5766 19.09C79.0166 20.0233 78.2466 20.7467 77.2666 21.26ZM64.4566 13.07V19.825H70.8966C72.4833 19.825 73.6966 19.545 74.5366 18.985C75.3999 18.4017 75.8316 17.5617 75.8316 16.465C75.8316 15.345 75.3999 14.505 74.5366 13.945C73.6966 13.3617 72.4833 13.07 70.8966 13.07H64.4566ZM71.8066 30.43C75.3299 30.43 77.0916 29.2517 77.0916 26.895C77.0916 24.5383 75.3299 23.36 71.8066 23.36H64.4566V30.43H71.8066Z" fill="white"/>
<path d="M12.319 44.05H13.526V48.589C12.9707 49.0763 12.3133 49.4503 11.554 49.711C10.7947 49.9717 9.99567 50.102 9.157 50.102C7.967 50.102 6.896 49.8413 5.944 49.32C4.992 48.7987 4.244 48.079 3.7 47.161C3.156 46.2317 2.884 45.1947 2.884 44.05C2.884 42.9053 3.156 41.874 3.7 40.956C4.244 40.0267 4.992 39.3013 5.944 38.78C6.896 38.2587 7.97267 37.998 9.174 37.998C10.0807 37.998 10.9137 38.1453 11.673 38.44C12.4323 38.7233 13.0727 39.1483 13.594 39.715L12.812 40.514C11.8713 39.5847 10.6757 39.12 9.225 39.12C8.26167 39.12 7.389 39.3353 6.607 39.766C5.83633 40.1853 5.23 40.7747 4.788 41.534C4.346 42.282 4.125 43.1207 4.125 44.05C4.125 44.9793 4.346 45.818 4.788 46.566C5.23 47.314 5.83633 47.9033 6.607 48.334C7.37767 48.7647 8.24467 48.98 9.208 48.98C10.432 48.98 11.469 48.674 12.319 48.062V44.05ZM24.7874 42.809C25.0708 42.2083 25.4901 41.755 26.0454 41.449C26.6121 41.143 27.3091 40.99 28.1364 40.99V42.163L27.8474 42.146C26.9068 42.146 26.1701 42.435 25.6374 43.013C25.1048 43.591 24.8384 44.4013 24.8384 45.444V50H23.6314V41.058H24.7874V42.809ZM40.6939 50.085C39.8325 50.085 39.0562 49.8923 38.3649 49.507C37.6735 49.1103 37.1295 48.5663 36.7329 47.875C36.3362 47.1837 36.1379 46.4017 36.1379 45.529C36.1379 44.6563 36.3362 43.8743 36.7329 43.183C37.1295 42.4917 37.6735 41.9533 38.3649 41.568C39.0562 41.1827 39.8325 40.99 40.6939 40.99C41.5552 40.99 42.3315 41.1827 43.0229 41.568C43.7142 41.9533 44.2525 42.4917 44.6379 43.183C45.0345 43.8743 45.2329 44.6563 45.2329 45.529C45.2329 46.4017 45.0345 47.1837 44.6379 47.875C44.2525 48.5663 43.7142 49.1103 43.0229 49.507C42.3315 49.8923 41.5552 50.085 40.6939 50.085ZM40.6939 49.014C41.3285 49.014 41.8952 48.8723 42.3939 48.589C42.9039 48.2943 43.3005 47.8807 43.5839 47.348C43.8672 46.8153 44.0089 46.209 44.0089 45.529C44.0089 44.849 43.8672 44.2427 43.5839 43.71C43.3005 43.1773 42.9039 42.7693 42.3939 42.486C41.8952 42.1913 41.3285 42.044 40.6939 42.044C40.0592 42.044 39.4869 42.1913 38.9769 42.486C38.4782 42.7693 38.0815 43.1773 37.7869 43.71C37.5035 44.2427 37.3619 44.849 37.3619 45.529C37.3619 46.209 37.5035 46.8153 37.7869 47.348C38.0815 47.8807 38.4782 48.2943 38.9769 48.589C39.4869 48.8723 40.0592 49.014 40.6939 49.014ZM62.5551 41.058V50H61.3991V48.368C61.0817 48.912 60.6454 49.337 60.0901 49.643C59.5347 49.9377 58.9001 50.085 58.1861 50.085C57.0187 50.085 56.0951 49.762 55.4151 49.116C54.7464 48.4587 54.4121 47.501 54.4121 46.243V41.058H55.6191V46.124C55.6191 47.0647 55.8514 47.7787 56.3161 48.266C56.7807 48.7533 57.4437 48.997 58.3051 48.997C59.2457 48.997 59.9881 48.7137 60.5321 48.147C61.0761 47.569 61.3481 46.77 61.3481 45.75V41.058H62.5551ZM77.3425 40.99C78.1812 40.99 78.9405 41.1827 79.6205 41.568C80.3005 41.942 80.8332 42.4747 81.2185 43.166C81.6039 43.8573 81.7965 44.645 81.7965 45.529C81.7965 46.4243 81.6039 47.2177 81.2185 47.909C80.8332 48.6003 80.3005 49.1387 79.6205 49.524C78.9519 49.898 78.1925 50.085 77.3425 50.085C76.6172 50.085 75.9599 49.9377 75.3705 49.643C74.7925 49.337 74.3165 48.895 73.9425 48.317V53.298H72.7355V41.058H73.8915V42.826C74.2542 42.2367 74.7302 41.7833 75.3195 41.466C75.9202 41.1487 76.5945 40.99 77.3425 40.99ZM77.2575 49.014C77.8809 49.014 78.4475 48.8723 78.9575 48.589C79.4675 48.2943 79.8642 47.8807 80.1475 47.348C80.4422 46.8153 80.5895 46.209 80.5895 45.529C80.5895 44.849 80.4422 44.2483 80.1475 43.727C79.8642 43.1943 79.4675 42.7807 78.9575 42.486C78.4475 42.1913 77.8809 42.044 77.2575 42.044C76.6229 42.044 76.0505 42.1913 75.5405 42.486C75.0419 42.7807 74.6452 43.1943 74.3505 43.727C74.0672 44.2483 73.9255 44.849 73.9255 45.529C73.9255 46.209 74.0672 46.8153 74.3505 47.348C74.6452 47.8807 75.0419 48.2943 75.5405 48.589C76.0505 48.8723 76.6229 49.014 77.2575 49.014Z" fill="white"/>
</svg>
